<?xml version="1.0" encoding="UTF-8" standalone="no"?>
<!-- Created with Inkscape (http://www.inkscape.org/) -->

<svg
   xmlns:osb="http://www.openswatchbook.org/uri/2009/osb"
   xmlns:dc="http://purl.org/dc/elements/1.1/"
   xmlns:cc="http://creativecommons.org/ns#"
   xmlns:rdf="http://www.w3.org/1999/02/22-rdf-syntax-ns#"
   xmlns:svg="http://www.w3.org/2000/svg"
   xmlns="http://www.w3.org/2000/svg"
   xmlns:xlink="http://www.w3.org/1999/xlink"
   xmlns:sodipodi="http://sodipodi.sourceforge.net/DTD/sodipodi-0.dtd"
   xmlns:inkscape="http://www.inkscape.org/namespaces/inkscape"
   width="297mm"
   height="420mm"
   viewBox="0 0 1052.3622 1488.189"
   id="svg2"
   version="1.1"
   inkscape:version="0.91 r13725"
   sodipodi:docname="la-infographic-2016.svg">
  <defs
     id="defs4">
    <linearGradient
       id="linearGradient5758"
       osb:paint="gradient">
      <stop
         style="stop-color:#000000;stop-opacity:1;"
         offset="0"
         id="stop5760" />
      <stop
         style="stop-color:#000000;stop-opacity:0;"
         offset="1"
         id="stop5762" />
    </linearGradient>
    <linearGradient
       id="linearGradient3187">
      <stop
         id="stop3189"
         offset="0"
         style="stop-color:#ffffff;stop-opacity:0.66412216;" />
      <stop
         id="stop3191"
         offset="1"
         style="stop-color:#ffffff;stop-opacity:0;" />
    </linearGradient>
    <linearGradient
       id="linearGradient3169">
      <stop
         id="stop3171"
         offset="0"
         style="stop-color:#ffffff;stop-opacity:1;" />
      <stop
         id="stop3173"
         offset="1"
         style="stop-color:#000000;stop-opacity:0.097" />
    </linearGradient>
    <radialGradient
       spreadMethod="pad"
       gradientUnits="userSpaceOnUse"
       gradientTransform="matrix(0.9014437,-0.2603209,0.6601646,2.2860301,-219.58549,-471.21436)"
       r="147.15335"
       fy="431.32117"
       fx="208.75005"
       cy="431.32117"
       cx="208.75005"
       id="radialGradient3221"
       xlink:href="#linearGradient3187"
       inkscape:collect="always" />
    <radialGradient
       gradientUnits="userSpaceOnUse"
       gradientTransform="matrix(0.842453,0.3022506,-0.6633709,1.848992,392.50146,-577.88892)"
       r="154.59425"
       fy="518.88647"
       fx="420.3974"
       cy="518.88647"
       cx="420.3974"
       id="radialGradient3231"
       xlink:href="#linearGradient3187"
       inkscape:collect="always" />
  </defs>
  <sodipodi:namedview
     id="base"
     pagecolor="#ffffff"
     bordercolor="#666666"
     borderopacity="1.0"
     inkscape:pageopacity="0.0"
     inkscape:pageshadow="2"
     inkscape:zoom="0.32094727"
     inkscape:cx="432.5857"
     inkscape:cy="943.79988"
     inkscape:document-units="px"
     inkscape:current-layer="layer1"
     showgrid="false"
     inkscape:window-width="1920"
     inkscape:window-height="1056"
     inkscape:window-x="0"
     inkscape:window-y="24"
     inkscape:window-maximized="1" />
  <metadata
     id="metadata7">
    <rdf:RDF>
      <cc:Work
         rdf:about="">
        <dc:format>image/svg+xml</dc:format>
        <dc:type
           rdf:resource="http://purl.org/dc/dcmitype/StillImage" />
        <dc:title />
      </cc:Work>
    </rdf:RDF>
  </metadata>
  <g
     inkscape:label="Layer 1"
     inkscape:groupmode="layer"
     id="layer1"
     transform="translate(0,435.82677)">
    <rect
       style="opacity:1;fill:none;fill-opacity:1;stroke:#000000;stroke-width:17.71653543;stroke-linecap:butt;stroke-linejoin:round;stroke-miterlimit:4;stroke-dasharray:none;stroke-dashoffset:0;stroke-opacity:1"
       id="rect4155"
       width="1049.8788"
       height="1485.7054"
       x="1.2417089"
       y="-434.58514" />
    <g
       id="g4174">
      <flowRoot
         transform="matrix(2.8087774,0,0,2.8087774,-511.30655,-1781.5817)"
         style="font-style:normal;font-variant:normal;font-weight:normal;font-stretch:normal;font-size:180px;line-height:125%;font-family:Rachana;-inkscape-font-specification:Rachana;letter-spacing:0px;word-spacing:0px;fill:#2a2a2a;fill-opacity:1;stroke:none;stroke-width:1px;stroke-linecap:butt;stroke-linejoin:miter;stroke-opacity:1;opacity:0.195;"
         id="flowRoot5788"
         xml:space="preserve"><flowRegion
           id="flowRegion5790"><rect
             style="fill:#2a2a2a;"
             y="457.09753"
             x="174.05176"
             height="431.82462"
             width="799.75684"
             id="rect5792" /></flowRegion><flowPara
           style="font-style:normal;font-variant:normal;font-weight:normal;font-stretch:normal;font-family:Poppins;-inkscape-font-specification:Poppins;fill:#2a2a2a;fill-opacity:1;"
           id="flowPara5794">2016</flowPara></flowRoot>      <g
         transform="matrix(0.70957252,0,0,0.70957252,193.37879,-523.44443)"
         id="g4284">
        <g
           inkscape:label="Layer 1"
           id="layer1-3"
           style="display:none">
          <image
             sodipodi:absref="/home/kathyreid/Dropbox/LA/Logo/la_logo.gif"
             xlink:href="file:///home/kathyreid/Dropbox/LA/Logo/la_logo.gif"
             width="955.51331"
             height="498.23193"
             id="image2218"
             x="38.260487"
             y="183.44489" />
        </g>
        <g
           id="layer2"
           inkscape:label="Feet"
           style="display:inline">
          <path
             inkscape:connector-curvature="0"
             style="fill:#ffc100;fill-opacity:1;fill-rule:evenodd;stroke:none;stroke-width:0.25pt;stroke-linecap:butt;stroke-linejoin:miter;stroke-opacity:1"
             d="m 276.77282,547.06976 c 39.24809,-9.59201 43.24187,-55.14946 43.78327,-73.49334 0.54121,-18.33747 -2.5588,-75.39056 -1.56369,-100.07605 1.0248,-25.42186 21.43777,-106.44466 16.41873,-143.85931 -4.30015,-32.05561 -35.21809,7.67491 -77.40257,1.56368 -29.05153,-4.20867 -53.94724,-53.16539 -76.62072,-48.47433 -33.69637,6.97166 -7.0366,78.96625 -45.34696,100.07604 -39.03784,21.51064 -93.039452,-25.01901 -93.821298,18.76426 -0.726018,40.65693 38.701281,79.35718 96.948668,143.85932 58.24739,64.50214 98.16927,111.2775 137.60457,101.63973 z"
             id="path2222"
             sodipodi:nodetypes="czsssssssz"
             inkscape:label="Left Print" />
          <path
             inkscape:connector-curvature="0"
             style="fill:#ffc100;fill-opacity:1;fill-rule:evenodd;stroke:none;stroke-width:0.25pt;stroke-linecap:butt;stroke-linejoin:miter;stroke-opacity:1"
             d="m 396.39497,633.07261 c 44.64976,-20.51385 92.91418,-64.79192 132.9135,-97.7305 28.23433,-23.25037 78.30291,-73.9799 87.56654,-88.34839 6.76319,-10.49015 18.3007,-33.03311 4.69106,-44.56512 -21.8635,-18.52583 -70.56143,2.93191 -88.34838,-14.85504 -29.51462,-29.51461 -3.73678,-89.74306 -29.71008,-103.20342 -17.32808,-8.98008 -43.97873,32.05561 -82.87548,36.74668 -38.89674,4.69106 -36.65003,-34.92203 -72.7115,-17.98242 -11.66156,5.47793 -10.30513,21.70786 -8.60028,41.43774 2.50786,29.02297 3.90234,106.96096 2.34553,125.09506 -2.10774,24.55138 -16.24844,84.7019 -14.85504,110.24002 0.91293,16.73212 8.79574,30.49192 23.45532,44.56511 14.65958,14.07319 36.07369,13.22 46.12881,8.60028 z"
             id="path3211"
             sodipodi:nodetypes="cssssssssssss"
             inkscape:label="Right Print" />
          <path
             inkscape:connector-curvature="0"
             inkscape:label="Left Print"
             sodipodi:nodetypes="czsssssssz"
             id="path3213"
             d="m 276.77282,547.06976 c 39.24809,-9.59201 43.24187,-55.14946 43.78327,-73.49334 0.54121,-18.33747 -2.5588,-75.39056 -1.56369,-100.07605 1.0248,-25.42186 21.43777,-106.44466 16.41873,-143.85931 -4.30015,-32.05561 -35.21809,7.67491 -77.40257,1.56368 -29.05153,-4.20867 -53.94724,-53.16539 -76.62072,-48.47433 -33.69637,6.97166 -7.0366,78.96625 -45.34696,100.07604 -39.03784,21.51064 -93.039452,-25.01901 -93.821298,18.76426 -0.726018,40.65693 38.701281,79.35718 96.948668,143.85932 58.24739,64.50214 98.16927,111.2775 137.60457,101.63973 z"
             style="opacity:1;fill:url(#radialGradient3221);fill-opacity:1;fill-rule:evenodd;stroke:#ffc100;stroke-width:8;stroke-linecap:butt;stroke-linejoin:miter;stroke-miterlimit:4;stroke-dasharray:none;stroke-opacity:1" />
          <path
             inkscape:connector-curvature="0"
             inkscape:label="Right Print"
             sodipodi:nodetypes="cssssssssssss"
             id="path3223"
             d="m 396.39497,633.07261 c 44.64976,-20.51385 92.91418,-64.79192 132.9135,-97.7305 28.23433,-23.25037 78.30291,-73.9799 87.56654,-88.34839 6.76319,-10.49015 18.3007,-33.03311 4.69106,-44.56512 -21.8635,-18.52583 -70.56143,2.93191 -88.34838,-14.85504 -29.51462,-29.51461 -3.73678,-89.74306 -29.71008,-103.20342 -17.32808,-8.98008 -43.97873,32.05561 -82.87548,36.74668 -38.89674,4.69106 -36.65003,-34.92203 -72.7115,-17.98242 -11.66156,5.47793 -10.30513,21.70786 -8.60028,41.43774 2.50786,29.02297 3.90234,106.96096 2.34553,125.09506 -2.10774,24.55138 -16.24844,84.7019 -14.85504,110.24002 0.91293,16.73212 8.79574,30.49192 23.45532,44.56511 14.65958,14.07319 36.07369,13.22 46.12881,8.60028 z"
             style="opacity:1;fill:url(#radialGradient3231);fill-opacity:1;fill-rule:evenodd;stroke:#ffc100;stroke-width:8;stroke-linecap:butt;stroke-linejoin:miter;stroke-miterlimit:4;stroke-dasharray:none;stroke-opacity:1" />
        </g>
        <g
           id="layer3"
           inkscape:label="Text"
           style="display:inline">
          <text
             xml:space="preserve"
             style="font-style:normal;font-variant:normal;font-weight:bold;font-stretch:normal;font-size:154px;line-height:100%;font-family:'Bitstream Vera Sans Mono';text-align:start;writing-mode:lr-tb;text-anchor:start;fill:#000000;fill-opacity:1;stroke:none;stroke-width:1pt;stroke-linecap:butt;stroke-linejoin:miter;stroke-opacity:1"
             x="168.13309"
             y="357.95425"
             id="text3214"
             sodipodi:linespacing="100%"><tspan
               sodipodi:role="line"
               id="tspan3216"
               x="168.13309"
               y="357.95425">linux</tspan></text>
          <rect
             style="opacity:1;fill:#ffd03c;fill-opacity:1;fill-rule:nonzero;stroke:none;stroke-width:10;stroke-linecap:butt;stroke-linejoin:miter;stroke-miterlimit:4;stroke-dasharray:none;stroke-dashoffset:0;stroke-opacity:1"
             id="rect4196"
             width="28.50139"
             height="28.738527"
             x="474.59836"
             y="349.01251" />
          <text
             xml:space="preserve"
             style="font-style:normal;font-variant:normal;font-weight:bold;font-stretch:normal;font-size:154px;line-height:100%;font-family:'Bitstream Vera Sans Mono';text-align:start;writing-mode:lr-tb;text-anchor:start;fill:#ff0000;fill-opacity:1;stroke:none;stroke-width:1pt;stroke-linecap:butt;stroke-linejoin:miter;stroke-opacity:1"
             x="169.60599"
             y="459.59399"
             id="text3218"
             sodipodi:linespacing="100%"><tspan
               sodipodi:role="line"
               id="tspan3220"
               x="169.60599"
               y="459.59399"
               style="fill:#ff0000;fill-opacity:1;stroke:none">australia</tspan></text>
        </g>
        <g
           id="layer4"
           inkscape:label="t" />
      </g>
      <text
         sodipodi:linespacing="125%"
         id="text5796"
         y="-72.866913"
         x="39.677277"
         style="font-style:normal;font-variant:normal;font-weight:normal;font-stretch:normal;font-size:69.50918579px;line-height:125%;font-family:Rachana;-inkscape-font-specification:Rachana;letter-spacing:0px;word-spacing:0px;fill:#000000;fill-opacity:1;stroke:none;stroke-width:1px;stroke-linecap:butt;stroke-linejoin:miter;stroke-opacity:1"
         xml:space="preserve"><tspan
           style="font-style:normal;font-variant:normal;font-weight:600;font-stretch:normal;font-family:Poppins;-inkscape-font-specification:'Poppins Semi-Bold';letter-spacing:31.11005211px"
           y="-72.866913"
           x="39.677277"
           id="tspan5798"
           sodipodi:role="line">by the numbers</tspan></text>
    </g>
  </g>
</svg>
