<?xml version="1.0" encoding="UTF-8" standalone="no"?>
<!DOCTYPE svg PUBLIC "-//W3C//DTD SVG 1.1//EN" "http://www.w3.org/Graphics/SVG/1.1/DTD/svg11.dtd">
<svg width="1824" height="1025.05" id="BaseSvg" transform="translate(812,512.525)" version="1.1" xmlns:xlink="http://www.w3.org/1999/xlink" style="perspective-origin:912px 512.533px;transform-origin:912px 512.533px;" xmlns="http://www.w3.org/2000/svg"><g style="overflow:visible;overflow-x:visible;overflow-y:visible;perspective-origin:912px 512.533px;transform-origin:0px 0px;"><g class="ExpensesArc" style="overflow:visible;overflow-x:visible;overflow-y:visible;perspective-origin:912px 512.533px;transform-origin:0px 0px;"><path d="M6.476330339464187,-432.37272053974385A5,5,0,0,1,11.608997010055068,-437.37096018531054A437.525,437.525,0,0,1,400.83086559291286,-175.3931093658933A5,5,0,0,1,398.13233537959695,-168.7564986801795L259.0904054987246,-112.2620777471708A5,5,0,0,1,252.6563172947174,-114.82556751904642A277.525,277.525,0,0,0,11.273227422209755,-277.2959429354983A5,5,0,0,1,6.476330339464203,-282.2918161529651Z" class="ExpensesArcPath" style="overflow:visible;overflow-x:visible;overflow-y:visible;perspective-origin:912px 512.533px;transform-origin:0px 0px;fill:rgb(255, 193, 0);stroke:rgb(0, 0, 0);stroke-width:1.7;"/></g><g class="ExpensesArc" style="overflow:visible;overflow-x:visible;overflow-y:visible;perspective-origin:912px 512.533px;transform-origin:0px 0px;"><path d="M403.00805936052376,-156.75655141674247A5,5,0,0,1,409.570732485051,-153.88287986861522A437.525,437.525,0,0,1,390.9868653171075,196.36037475647166A5,5,0,0,1,384.1569436847938,198.52343675335533L251.87406358613273,127.63255232978028A5,5,0,0,1,249.7364683841288,121.04471068172701A277.525,277.525,0,0,0,261.1433990839174,-93.93748314649393A5,5,0,0,1,263.96612947965144,-100.26213048373376Z" class="ExpensesArcPath" style="overflow:visible;overflow-x:visible;overflow-y:visible;perspective-origin:912px 512.533px;transform-origin:0px 0px;fill:rgb(255, 0, 0);stroke:rgb(0, 0, 0);stroke-width:1.7;"/></g><g class="ExpensesArc" style="overflow:visible;overflow-x:visible;overflow-y:visible;perspective-origin:912px 512.533px;transform-origin:0px 0px;"><path d="M378.0387398072286,209.9400474577632A5,5,0,0,1,380.0198196602859,216.82495772019357A437.525,437.525,0,0,1,121.95847763668068,420.1835972019175A5,5,0,0,1,115.72763247968794,416.6476057800544L77.73217694205131,271.45592826360405A5,5,0,0,1,81.10801651126097,265.40839339140916A277.525,277.525,0,0,0,239.08662501419582,140.91739198665755A5,5,0,0,1,245.75585970856747,139.04916303418815Z" class="ExpensesArcPath" style="overflow:visible;overflow-x:visible;overflow-y:visible;perspective-origin:912px 512.533px;transform-origin:0px 0px;fill:rgb(57, 57, 57);stroke:rgb(0, 0, 0);stroke-width:1.7;"/></g><g class="ExpensesArc" style="overflow:visible;overflow-x:visible;overflow-y:visible;perspective-origin:912px 512.533px;transform-origin:0px 0px;"><path d="M103.19693418759633,419.9267853994148A5,5,0,0,1,99.49686258897927,426.0616152153931A437.525,437.525,0,0,1,-211.73605540825352,382.8785296476586A5,5,0,0,1,-213.6261143803461,375.9680778688008L-137.5366812164535,246.60550205047937A5,5,0,0,1,-130.8691299518622,244.73127395296785A277.525,277.525,0,0,0,59.29606372295846,271.11640018996053A5,5,0,0,1,65.20147864995967,274.7351078829646Z" class="ExpensesArcPath" style="overflow:visible;overflow-x:visible;overflow-y:visible;perspective-origin:912px 512.533px;transform-origin:0px 0px;fill:rgb(255, 193, 0);stroke:rgb(0, 0, 0);stroke-width:1.7;"/></g><g class="ExpensesArc" style="overflow:visible;overflow-x:visible;overflow-y:visible;perspective-origin:912px 512.533px;transform-origin:0px 0px;"><path d="M-224.7906896204353,369.40121572833846A5,5,0,0,1,-231.74885799661777,371.10725193973707A437.525,437.525,0,0,1,-404.04259668946185,167.86216275693835A5,5,0,0,1,-401.2203564685723,161.27720817535604L-261.1456616764693,107.39439328551748A5,5,0,0,1,-254.7606672787655,110.07782716186823A277.525,277.525,0,0,0,-150.3030978251429,233.30045951340412A5,5,0,0,1,-148.70125645654298,240.03863991001694Z" class="ExpensesArcPath" style="overflow:visible;overflow-x:visible;overflow-y:visible;perspective-origin:912px 512.533px;transform-origin:0px 0px;fill:rgb(255, 51, 51);stroke:rgb(0, 0, 0);stroke-width:1.7;"/></g><g class="ExpensesArc" style="overflow:visible;overflow-x:visible;overflow-y:visible;perspective-origin:912px 512.533px;transform-origin:0px 0px;"><path d="M-405.8706870389087,149.1881286301613A5,5,0,0,1,-412.3784398069502,146.19216123782257A437.525,437.525,0,0,1,-437.21118152827273,16.568294168432143A5,5,0,0,1,-432.271470758219,11.379274587227613L-282.20021755382356,9.677268942216315A5,5,0,0,1,-277.1502659720042,14.417201415230567A277.525,277.525,0,0,0,-262.8554109622996,89.03459188899895A5,5,0,0,1,-265.7959922468057,95.30531374032253Z" class="ExpensesArcPath" style="overflow:visible;overflow-x:visible;overflow-y:visible;perspective-origin:912px 512.533px;transform-origin:0px 0px;fill:rgb(97, 97, 97);stroke:rgb(0, 0, 0);stroke-width:1.7;"/></g><g class="ExpensesArc" style="overflow:visible;overflow-x:visible;overflow-y:visible;perspective-origin:912px 512.533px;transform-origin:0px 0px;"><path d="M-432.41836154145045,-1.5725531510204807A5,5,0,0,1,-437.4744872236211,-6.648206783017367A437.525,437.525,0,0,1,-431.45108986840154,-72.65041415139007A5,5,0,0,1,-425.55972638234704,-76.726993965535L-278.27564511014793,-47.88817870974337A5,5,0,0,1,-274.2946205377155,-42.22069124340131A277.525,277.525,0,0,0,-277.40595601849606,-8.1278035448835A5,5,0,0,1,-282.347108337055,-3.274558796032017Z" class="ExpensesArcPath" style="overflow:visible;overflow-x:visible;overflow-y:visible;perspective-origin:912px 512.533px;transform-origin:0px 0px;fill:rgb(255, 218, 102);stroke:rgb(0, 0, 0);stroke-width:1.7;"/></g><g class="ExpensesArc" style="overflow:visible;overflow-x:visible;overflow-y:visible;perspective-origin:912px 512.533px;transform-origin:0px 0px;"><path d="M-423.0708062234712,-89.43827616310237A5,5,0,0,1,-426.9896332767592,-95.4357307258587A437.525,437.525,0,0,1,-409.1896708890509,-154.89331445453095A5,5,0,0,1,-402.61992495256226,-157.75077924624784L-263.71785824026335,-100.91334682178436A5,5,0,0,1,-260.9107469500396,-94.58175168060914A277.525,277.525,0,0,0,-269.96220364172206,-64.34698306762616A5,5,0,0,1,-275.7867249512721,-60.599460907311Z" class="ExpensesArcPath" style="overflow:visible;overflow-x:visible;overflow-y:visible;perspective-origin:912px 512.533px;transform-origin:0px 0px;fill:rgb(255, 102, 102);stroke:rgb(0, 0, 0);stroke-width:1.7;"/></g><g class="ExpensesArc" style="overflow:visible;overflow-x:visible;overflow-y:visible;perspective-origin:912px 512.533px;transform-origin:0px 0px;"><path d="M-397.71459752890615,-169.73865568580874A5,5,0,0,1,-400.39673902645575,-176.38190667406977A437.525,437.525,0,0,1,-375.075449163472,-225.26991157236185A5,5,0,0,1,-368.10192705650087,-226.91206142225187L-241.5382195770006,-146.25286597252705A5,5,0,0,1,-239.903218920832,-139.5226547067655A277.525,277.525,0,0,0,-252.37213500025848,-115.44882459519154A5,5,0,0,1,-258.812530816607,-112.90122326134542Z" class="ExpensesArcPath" style="overflow:visible;overflow-x:visible;overflow-y:visible;perspective-origin:912px 512.533px;transform-origin:0px 0px;fill:rgb(136, 136, 136);stroke:rgb(0, 0, 0);stroke-width:1.7;"/></g><g class="ExpensesArc" style="overflow:visible;overflow-x:visible;overflow-y:visible;perspective-origin:912px 512.533px;transform-origin:0px 0px;"><path d="M-361.14067376738717,-237.83508166888024A5,5,0,0,1,-362.59721467207885,-244.84972031237916A437.525,437.525,0,0,1,-329.28109134808284,-288.100830449368A5,5,0,0,1,-322.1270154084432,-288.4827521112032L-211.83812844126848,-186.69552662050035A5,5,0,0,1,-211.42017752457645,-179.78218532567834A277.525,277.525,0,0,0,-227.78589516518826,-158.53615230853134A5,5,0,0,1,-234.5769662878868,-157.17588621915567Z" class="ExpensesArcPath" style="overflow:visible;overflow-x:visible;overflow-y:visible;perspective-origin:912px 512.533px;transform-origin:0px 0px;fill:rgb(255, 230, 153);stroke:rgb(0, 0, 0);stroke-width:1.7;"/></g><g class="ExpensesArc" style="overflow:visible;overflow-x:visible;overflow-y:visible;perspective-origin:912px 512.533px;transform-origin:0px 0px;"><path d="M-313.3423175908389,-298.00118175672924A5,5,0,0,1,-313.53428330196266,-305.1628726095699A437.525,437.525,0,0,1,-278.7263115920488,-337.2532710757482A5,5,0,0,1,-271.603788490939,-336.481046121434L-179.09758372511243,-218.29949112499483A5,5,0,0,1,-179.79557715729274,-211.40878898398708A277.525,277.525,0,0,0,-196.1288178899724,-196.35073826721924A5,5,0,0,1,-203.05343062366407,-196.2139562660266Z" class="ExpensesArcPath" style="overflow:visible;overflow-x:visible;overflow-y:visible;perspective-origin:912px 512.533px;transform-origin:0px 0px;fill:rgb(255, 153, 153);stroke:rgb(0, 0, 0);stroke-width:1.7;"/></g><g class="ExpensesArc" style="overflow:visible;overflow-x:visible;overflow-y:visible;perspective-origin:912px 512.533px;transform-origin:0px 0px;"><path d="M-261.40418590570926,-344.4647498839012A5,5,0,0,1,-260.44324854411326,-351.56427564926037A437.525,437.525,0,0,1,-224.99190311333794,-375.24228061139155A5,5,0,0,1,-218.06576338210584,-373.410545060239L-144.33093660497218,-242.69155951605904A5,5,0,0,1,-146.05451146736274,-235.98348523790807A277.525,277.525,0,0,0,-162.04131918518266,-225.30587320734836A5,5,0,0,1,-168.89798113988306,-226.2831948874619Z" class="ExpensesArcPath" style="overflow:visible;overflow-x:visible;overflow-y:visible;perspective-origin:912px 512.533px;transform-origin:0px 0px;fill:rgb(176, 176, 176);stroke:rgb(0, 0, 0);stroke-width:1.7;"/></g><g class="ExpensesArc" style="overflow:visible;overflow-x:visible;overflow-y:visible;perspective-origin:912px 512.533px;transform-origin:0px 0px;"><path d="M-206.78412384931082,-379.77419402255106A5,5,0,0,1,-204.76925961927995,-386.649293210232A437.525,437.525,0,0,1,-173.94051494298208,-401.46335185963136A5,5,0,0,1,-167.31371938793913,-398.74080757577246L-111.32315214110108,-259.4952179115727A5,5,0,0,1,-113.90992351679601,-253.07045451691445A277.525,277.525,0,0,0,-126.4167719633105,-247.0605702886973A5,5,0,0,1,-133.0492970721774,-249.055208478371Z" class="ExpensesArcPath" style="overflow:visible;overflow-x:visible;overflow-y:visible;perspective-origin:912px 512.533px;transform-origin:0px 0px;fill:rgb(255, 243, 204);stroke:rgb(0, 0, 0);stroke-width:1.7;"/></g><g class="ExpensesArc" style="overflow:visible;overflow-x:visible;overflow-y:visible;perspective-origin:912px 512.533px;transform-origin:0px 0px;"><path d="M-155.2961953642993,-403.5730467052757A5,5,0,0,1,-152.39877862842567,-410.1252709813966A437.525,437.525,0,0,1,-128.867644718597,-418.1163184685351A5,5,0,0,1,-122.57936353605307,-414.6835081802765L-82.19592747781,-270.13782006166394A5,5,0,0,1,-85.47162910711245,-264.03546398689735A277.525,277.525,0,0,0,-92.99124360560948,-261.48184303634196A5,5,0,0,1,-99.30562811746164,-264.32745704107583Z" class="ExpensesArcPath" style="overflow:visible;overflow-x:visible;overflow-y:visible;perspective-origin:912px 512.533px;transform-origin:0px 0px;fill:rgb(255, 204, 204);stroke:rgb(0, 0, 0);stroke-width:1.7;"/></g><g class="ExpensesArc" style="overflow:visible;overflow-x:visible;overflow-y:visible;perspective-origin:912px 512.533px;transform-origin:0px 0px;"><path d="M-110.10441705000595,-418.1687813164484A5,5,0,0,1,-106.50596628866387,-424.36376467591805A437.525,437.525,0,0,1,-11.608997010054436,-437.37096018531054A5,5,0,0,1,-6.476330339463562,-432.37272053974385L-6.476330339463621,-282.29181615296517A5,5,0,0,1,-11.273227422209155,-277.2959429354983A277.525,277.525,0,0,0,-63.75672244768204,-270.10221392600477A5,5,0,0,1,-69.72098099176326,-273.62309319783583Z" class="ExpensesArcPath" style="overflow:visible;overflow-x:visible;overflow-y:visible;perspective-origin:912px 512.533px;transform-origin:0px 0px;fill:rgb(255, 255, 255);stroke:rgb(0, 0, 0);stroke-width:1.7;"/></g></g><g style="overflow:visible;overflow-x:visible;overflow-y:visible;perspective-origin:912px 512.533px;transform-origin:0px 0px;"><path d="M-409.43977302765967,208.61998439281527A459.525,459.525,0,1,0,2.8137791018909372e-14,-459.525L1.564639366760637e-14,-255.52499999999998A255.52499999999998,255.52499999999998,0,1,1,-227.67444209323267,116.0059224459477Z" id="ExpensesTitle" class="TitlePath" style="overflow:visible;overflow-x:visible;overflow-y:visible;perspective-origin:912px 512.533px;transform-origin:0px 0px;fill:none;stroke-width:1.7;"/><text id="ExpensesTitleText" style="font-family:&quot;Poppins&quot;;font-size:30px;font-weight:200;line-height:49px;overflow:visible;overflow-x:visible;overflow-y:visible;perspective-origin:912px 512.533px;transform-origin:0px 0px;-moz-column-gap:30px;"><textPath xlink:href="#ExpensesTitle" class="ExpensesTitle" style="font-family:&quot;Poppins&quot;;font-size:24px;font-weight:700;line-height:40px;overflow:visible;overflow-x:visible;overflow-y:visible;perspective-origin:476px 20px;transform-origin:0px 0px;-moz-column-gap:24px;fill:rgb(57, 57, 57);">Linux Australia Non-Event Expenditure 1 October 2015 - 30 September 2016</textPath></text></g><g style="overflow:visible;overflow-x:visible;overflow-y:visible;perspective-origin:912px 512.533px;transform-origin:0px 0px;"><text text-anchor="start" x="281.8738937211052" y="-403.92447148506324" class="ExpensesLabels" style="font-family:&quot;Poppins&quot;;font-size:14px;line-height:23px;overflow:visible;overflow-x:visible;overflow-y:visible;perspective-origin:912px 512.533px;transform-origin:0px 0px;-moz-column-gap:14px;fill:rgb(57, 57, 57);">  Face to face - $8535  </text><text text-anchor="start" x="496.2147982710145" y="25.798501775085494" class="ExpensesLabels" style="font-family:&quot;Poppins&quot;;font-size:14px;line-height:23px;overflow:visible;overflow-x:visible;overflow-y:visible;perspective-origin:912px 512.533px;transform-origin:0px 0px;-moz-column-gap:14px;fill:rgb(57, 57, 57);">  Insurance - $6324  </text><text text-anchor="start" x="311.3624753292831" y="382.4278379184362" class="ExpensesLabels" style="font-family:&quot;Poppins&quot;;font-size:14px;line-height:23px;overflow:visible;overflow-x:visible;overflow-y:visible;perspective-origin:912px 512.533px;transform-origin:0px 0px;-moz-column-gap:14px;fill:rgb(57, 57, 57);">  Merchant fees - $5928  </text><text text-anchor="end" x="-76.91541942551538" y="482.2786739994521" class="ExpensesLabels" style="font-family:&quot;Poppins&quot;;font-size:14px;line-height:23px;overflow:visible;overflow-x:visible;overflow-y:visible;perspective-origin:912px 512.533px;transform-origin:0px 0px;-moz-column-gap:14px;fill:rgb(57, 57, 57);text-anchor:end;">  Consulting and accounting - $5674  </text><text text-anchor="end" x="-381.40591763816803" y="314.846053008312" class="ExpensesLabels" style="font-family:&quot;Poppins&quot;;font-size:14px;line-height:23px;overflow:visible;overflow-x:visible;overflow-y:visible;perspective-origin:912px 512.533px;transform-origin:0px 0px;-moz-column-gap:14px;fill:rgb(57, 57, 57);text-anchor:end;">  Donations - $4840  </text><text text-anchor="end" x="-488.20253535772736" y="91.61183290931322" class="ExpensesLabels" style="font-family:&quot;Poppins&quot;;font-size:14px;line-height:23px;overflow:visible;overflow-x:visible;overflow-y:visible;perspective-origin:912px 512.533px;transform-origin:0px 0px;-moz-column-gap:14px;fill:rgb(57, 57, 57);text-anchor:end;">  Grants - $2564  </text><text text-anchor="end" x="-494.8837627150579" y="-44.25075600314468" class="ExpensesLabels" style="font-family:&quot;Poppins&quot;;font-size:14px;line-height:23px;overflow:visible;overflow-x:visible;overflow-y:visible;perspective-origin:912px 512.533px;transform-origin:0px 0px;-moz-column-gap:14px;fill:rgb(57, 57, 57);text-anchor:end;">  Travel - $1475  </text><text text-anchor="end" x="-476.4449083896965" y="-139.64075404010867" class="ExpensesLabels" style="font-family:&quot;Poppins&quot;;font-size:14px;line-height:23px;overflow:visible;overflow-x:visible;overflow-y:visible;perspective-origin:912px 512.533px;transform-origin:0px 0px;-moz-column-gap:14px;fill:rgb(57, 57, 57);text-anchor:end;">  Storage rental - $1405  </text><text text-anchor="end" x="-442.347884103913" y="-223.93235555058115" class="ExpensesLabels" style="font-family:&quot;Poppins&quot;;font-size:14px;line-height:23px;overflow:visible;overflow-x:visible;overflow-y:visible;perspective-origin:912px 512.533px;transform-origin:0px 0px;-moz-column-gap:14px;fill:rgb(57, 57, 57);text-anchor:end;">  Gift - $1289  </text><text text-anchor="end" x="-395.729117399241" y="-297.12529468553333" class="ExpensesLabels" style="font-family:&quot;Poppins&quot;;font-size:14px;line-height:23px;overflow:visible;overflow-x:visible;overflow-y:visible;perspective-origin:912px 512.533px;transform-origin:0px 0px;-moz-column-gap:14px;fill:rgb(57, 57, 57);text-anchor:end;">  Conf bid review - $1282  </text><text text-anchor="end" x="-340.0313478521752" y="-357.9800304296861" class="ExpensesLabels" style="font-family:&quot;Poppins&quot;;font-size:14px;line-height:23px;overflow:visible;overflow-x:visible;overflow-y:visible;perspective-origin:912px 512.533px;transform-origin:0px 0px;-moz-column-gap:14px;fill:rgb(57, 57, 57);text-anchor:end;">  Server - $1162  </text><text text-anchor="end" x="-280.42885623830983" y="-404.89335196468954" class="ExpensesLabels" style="font-family:&quot;Poppins&quot;;font-size:14px;line-height:23px;overflow:visible;overflow-x:visible;overflow-y:visible;perspective-origin:912px 512.533px;transform-origin:0px 0px;-moz-column-gap:14px;fill:rgb(57, 57, 57);text-anchor:end;">  Stationery - $1085  </text><text text-anchor="end" x="-220.88433459796536" y="-438.8601031909096" class="ExpensesLabels" style="font-family:&quot;Poppins&quot;;font-size:14px;line-height:23px;overflow:visible;overflow-x:visible;overflow-y:visible;perspective-origin:912px 512.533px;transform-origin:0px 0px;-moz-column-gap:14px;fill:rgb(57, 57, 57);text-anchor:end;">  Bank fees - $946  </text><text text-anchor="end" x="-166.56651609269286" y="-461.0393896297354" class="ExpensesLabels" style="font-family:&quot;Poppins&quot;;font-size:14px;line-height:23px;overflow:visible;overflow-x:visible;overflow-y:visible;perspective-origin:912px 512.533px;transform-origin:0px 0px;-moz-column-gap:14px;fill:rgb(57, 57, 57);text-anchor:end;">  Foreign currency losses - $792  </text><text text-anchor="end" x="-76.11929887868232" y="-482.38846489873066" class="ExpensesLabels" style="font-family:&quot;Poppins&quot;;font-size:14px;line-height:23px;overflow:visible;overflow-x:visible;overflow-y:visible;perspective-origin:912px 512.533px;transform-origin:0px 0px;-moz-column-gap:14px;fill:rgb(57, 57, 57);text-anchor:end;">  Other - $1963  </text><defs style="overflow:visible;overflow-x:visible;overflow-y:visible;perspective-origin:912px 512.533px;transform-origin:0px 0px;"><marker class="marker" id="marker" markerWidth="12" markerHeight="12" orient="auto" refX="2" refY="2" style="perspective-origin:912px 512.533px;transform-origin:0px 0px;"><circle cx="2" cy="2" r="2" style="opacity:0.9;overflow:visible;overflow-x:visible;overflow-y:visible;perspective-origin:912px 512.533px;transform-origin:0px 0px;"/></marker></defs><defs style="overflow:visible;overflow-x:visible;overflow-y:visible;perspective-origin:912px 512.533px;transform-origin:0px 0px;"><marker class="marker" id="marker" markerWidth="12" markerHeight="12" orient="auto" refX="2" refY="2" style="perspective-origin:912px 512.533px;transform-origin:0px 0px;"><circle cx="2" cy="2" r="2" style="opacity:0.9;overflow:visible;overflow-x:visible;overflow-y:visible;perspective-origin:912px 512.533px;transform-origin:0px 0px;"/></marker></defs><defs style="overflow:visible;overflow-x:visible;overflow-y:visible;perspective-origin:912px 512.533px;transform-origin:0px 0px;"><marker class="marker" id="marker" markerWidth="12" markerHeight="12" orient="auto" refX="2" refY="2" style="perspective-origin:912px 512.533px;transform-origin:0px 0px;"><circle cx="2" cy="2" r="2" style="opacity:0.9;overflow:visible;overflow-x:visible;overflow-y:visible;perspective-origin:912px 512.533px;transform-origin:0px 0px;"/></marker></defs><defs style="overflow:visible;overflow-x:visible;overflow-y:visible;perspective-origin:912px 512.533px;transform-origin:0px 0px;"><marker class="marker" id="marker" markerWidth="12" markerHeight="12" orient="auto" refX="2" refY="2" style="perspective-origin:912px 512.533px;transform-origin:0px 0px;"><circle cx="2" cy="2" r="2" style="opacity:0.9;overflow:visible;overflow-x:visible;overflow-y:visible;perspective-origin:912px 512.533px;transform-origin:0px 0px;"/></marker></defs><defs style="overflow:visible;overflow-x:visible;overflow-y:visible;perspective-origin:912px 512.533px;transform-origin:0px 0px;"><marker class="marker" id="marker" markerWidth="12" markerHeight="12" orient="auto" refX="2" refY="2" style="perspective-origin:912px 512.533px;transform-origin:0px 0px;"><circle cx="2" cy="2" r="2" style="opacity:0.9;overflow:visible;overflow-x:visible;overflow-y:visible;perspective-origin:912px 512.533px;transform-origin:0px 0px;"/></marker></defs><defs style="overflow:visible;overflow-x:visible;overflow-y:visible;perspective-origin:912px 512.533px;transform-origin:0px 0px;"><marker class="marker" id="marker" markerWidth="12" markerHeight="12" orient="auto" refX="2" refY="2" style="perspective-origin:912px 512.533px;transform-origin:0px 0px;"><circle cx="2" cy="2" r="2" style="opacity:0.9;overflow:visible;overflow-x:visible;overflow-y:visible;perspective-origin:912px 512.533px;transform-origin:0px 0px;"/></marker></defs><defs style="overflow:visible;overflow-x:visible;overflow-y:visible;perspective-origin:912px 512.533px;transform-origin:0px 0px;"><marker class="marker" id="marker" markerWidth="12" markerHeight="12" orient="auto" refX="2" refY="2" style="perspective-origin:912px 512.533px;transform-origin:0px 0px;"><circle cx="2" cy="2" r="2" style="opacity:0.9;overflow:visible;overflow-x:visible;overflow-y:visible;perspective-origin:912px 512.533px;transform-origin:0px 0px;"/></marker></defs><defs style="overflow:visible;overflow-x:visible;overflow-y:visible;perspective-origin:912px 512.533px;transform-origin:0px 0px;"><marker class="marker" id="marker" markerWidth="12" markerHeight="12" orient="auto" refX="2" refY="2" style="perspective-origin:912px 512.533px;transform-origin:0px 0px;"><circle cx="2" cy="2" r="2" style="opacity:0.9;overflow:visible;overflow-x:visible;overflow-y:visible;perspective-origin:912px 512.533px;transform-origin:0px 0px;"/></marker></defs><defs style="overflow:visible;overflow-x:visible;overflow-y:visible;perspective-origin:912px 512.533px;transform-origin:0px 0px;"><marker class="marker" id="marker" markerWidth="12" markerHeight="12" orient="auto" refX="2" refY="2" style="perspective-origin:912px 512.533px;transform-origin:0px 0px;"><circle cx="2" cy="2" r="2" style="opacity:0.9;overflow:visible;overflow-x:visible;overflow-y:visible;perspective-origin:912px 512.533px;transform-origin:0px 0px;"/></marker></defs><defs style="overflow:visible;overflow-x:visible;overflow-y:visible;perspective-origin:912px 512.533px;transform-origin:0px 0px;"><marker class="marker" id="marker" markerWidth="12" markerHeight="12" orient="auto" refX="2" refY="2" style="perspective-origin:912px 512.533px;transform-origin:0px 0px;"><circle cx="2" cy="2" r="2" style="opacity:0.9;overflow:visible;overflow-x:visible;overflow-y:visible;perspective-origin:912px 512.533px;transform-origin:0px 0px;"/></marker></defs><defs style="overflow:visible;overflow-x:visible;overflow-y:visible;perspective-origin:912px 512.533px;transform-origin:0px 0px;"><marker class="marker" id="marker" markerWidth="12" markerHeight="12" orient="auto" refX="2" refY="2" style="perspective-origin:912px 512.533px;transform-origin:0px 0px;"><circle cx="2" cy="2" r="2" style="opacity:0.9;overflow:visible;overflow-x:visible;overflow-y:visible;perspective-origin:912px 512.533px;transform-origin:0px 0px;"/></marker></defs><defs style="overflow:visible;overflow-x:visible;overflow-y:visible;perspective-origin:912px 512.533px;transform-origin:0px 0px;"><marker class="marker" id="marker" markerWidth="12" markerHeight="12" orient="auto" refX="2" refY="2" style="perspective-origin:912px 512.533px;transform-origin:0px 0px;"><circle cx="2" cy="2" r="2" style="opacity:0.9;overflow:visible;overflow-x:visible;overflow-y:visible;perspective-origin:912px 512.533px;transform-origin:0px 0px;"/></marker></defs><defs style="overflow:visible;overflow-x:visible;overflow-y:visible;perspective-origin:912px 512.533px;transform-origin:0px 0px;"><marker class="marker" id="marker" markerWidth="12" markerHeight="12" orient="auto" refX="2" refY="2" style="perspective-origin:912px 512.533px;transform-origin:0px 0px;"><circle cx="2" cy="2" r="2" style="opacity:0.9;overflow:visible;overflow-x:visible;overflow-y:visible;perspective-origin:912px 512.533px;transform-origin:0px 0px;"/></marker></defs><defs style="overflow:visible;overflow-x:visible;overflow-y:visible;perspective-origin:912px 512.533px;transform-origin:0px 0px;"><marker class="marker" id="marker" markerWidth="12" markerHeight="12" orient="auto" refX="2" refY="2" style="perspective-origin:912px 512.533px;transform-origin:0px 0px;"><circle cx="2" cy="2" r="2" style="opacity:0.9;overflow:visible;overflow-x:visible;overflow-y:visible;perspective-origin:912px 512.533px;transform-origin:0px 0px;"/></marker></defs><defs style="overflow:visible;overflow-x:visible;overflow-y:visible;perspective-origin:912px 512.533px;transform-origin:0px 0px;"><marker class="marker" id="marker" markerWidth="12" markerHeight="12" orient="auto" refX="2" refY="2" style="perspective-origin:912px 512.533px;transform-origin:0px 0px;"><circle cx="2" cy="2" r="2" style="opacity:0.9;overflow:visible;overflow-x:visible;overflow-y:visible;perspective-origin:912px 512.533px;transform-origin:0px 0px;"/></marker></defs><polyline marker-start="url(#marker)" style="opacity:0.7;overflow:visible;overflow-x:visible;overflow-y:visible;perspective-origin:912px 512.533px;transform-origin:0px 0px;fill:none;marker-start:url(&quot;http://localhost/infographic/charts/expenses.html#marker&quot;);stroke:rgb(0, 0, 0);stroke-width:2;" points="199.63434667400182,-296.59779711428143 271.8738937211052 -403.92447148506324"/><polyline marker-start="url(#marker)" style="opacity:0.7;overflow:visible;overflow-x:visible;overflow-y:visible;perspective-origin:912px 512.533px;transform-origin:0px 0px;fill:none;marker-start:url(&quot;http://localhost/infographic/charts/expenses.html#marker&quot;);stroke:rgb(0, 0, 0);stroke-width:2;" points="357.0227809207653,18.943588060428254 486.2147982710145 25.798501775085494"/><polyline marker-start="url(#marker)" style="opacity:0.7;overflow:visible;overflow-x:visible;overflow-y:visible;perspective-origin:912px 512.533px;transform-origin:0px 0px;fill:none;marker-start:url(&quot;http://localhost/infographic/charts/expenses.html#marker&quot;);stroke:rgb(0, 0, 0);stroke-width:2;" points="221.28752434074218,280.8130288931506 301.3624753292831 382.4278379184362"/><polyline marker-start="url(#marker)" style="opacity:0.7;overflow:visible;overflow-x:visible;overflow-y:visible;perspective-origin:912px 512.533px;transform-origin:0px 0px;fill:none;marker-start:url(&quot;http://localhost/infographic/charts/expenses.html#marker&quot;);stroke:rgb(0, 0, 0);stroke-width:2;" points="-49.1353393905969,354.13252328467496 -66.91541942551538 482.2786739994521"/><polyline marker-start="url(#marker)" style="opacity:0.7;overflow:visible;overflow-x:visible;overflow-y:visible;perspective-origin:912px 512.533px;transform-origin:0px 0px;fill:none;marker-start:url(&quot;http://localhost/infographic/charts/expenses.html#marker&quot;);stroke:rgb(0, 0, 0);stroke-width:2;" points="-272.71974040513766,231.18838383092327 -371.40591763816803 314.846053008312"/><polyline marker-start="url(#marker)" style="opacity:0.7;overflow:visible;overflow-x:visible;overflow-y:visible;perspective-origin:912px 512.533px;transform-origin:0px 0px;fill:none;marker-start:url(&quot;http://localhost/infographic/charts/expenses.html#marker&quot;);stroke:rgb(0, 0, 0);stroke-width:2;" points="-351.1394544631127,67.26967477509895 -478.20253535772736 91.61183290931322"/><polyline marker-start="url(#marker)" style="opacity:0.7;overflow:visible;overflow-x:visible;overflow-y:visible;perspective-origin:912px 512.533px;transform-origin:0px 0px;fill:none;marker-start:url(&quot;http://localhost/infographic/charts/expenses.html#marker&quot;);stroke:rgb(0, 0, 0);stroke-width:2;" points="-356.0454145029148,-32.49289824634855 -484.8837627150579 -44.25075600314468"/><polyline marker-start="url(#marker)" style="opacity:0.7;overflow:visible;overflow-x:visible;overflow-y:visible;perspective-origin:912px 512.533px;transform-origin:0px 0px;fill:none;marker-start:url(&quot;http://localhost/infographic/charts/expenses.html#marker&quot;);stroke:rgb(0, 0, 0);stroke-width:2;" points="-342.5059437347626,-102.53684279984257 -466.4449083896965 -139.64075404010867"/><polyline marker-start="url(#marker)" style="opacity:0.7;overflow:visible;overflow-x:visible;overflow-y:visible;perspective-origin:912px 512.533px;transform-origin:0px 0px;fill:none;marker-start:url(&quot;http://localhost/infographic/charts/expenses.html#marker&quot;);stroke:rgb(0, 0, 0);stroke-width:2;" points="-317.46883158819264,-164.43134310412898 -432.347884103913 -223.93235555058115"/><polyline marker-start="url(#marker)" style="opacity:0.7;overflow:visible;overflow-x:visible;overflow-y:visible;perspective-origin:912px 512.533px;transform-origin:0px 0px;fill:none;marker-start:url(&quot;http://localhost/infographic/charts/expenses.html#marker&quot;);stroke:rgb(0, 0, 0);stroke-width:2;" points="-283.2371261954639,-218.17620394886063 -385.729117399241 -297.12529468553333"/><polyline marker-start="url(#marker)" style="opacity:0.7;overflow:visible;overflow-x:visible;overflow-y:visible;perspective-origin:912px 512.533px;transform-origin:0px 0px;fill:none;marker-start:url(&quot;http://localhost/infographic/charts/expenses.html#marker&quot;);stroke:rgb(0, 0, 0);stroke-width:2;" points="-242.33879762650642,-262.8612424644211 -330.0313478521752 -357.9800304296861"/><polyline marker-start="url(#marker)" style="opacity:0.7;overflow:visible;overflow-x:visible;overflow-y:visible;perspective-origin:912px 512.533px;transform-origin:0px 0px;fill:none;marker-start:url(&quot;http://localhost/infographic/charts/expenses.html#marker&quot;);stroke:rgb(0, 0, 0);stroke-width:2;" points="-198.57326975393084,-297.3092365942111 -270.42885623830983 -404.89335196468954"/><polyline marker-start="url(#marker)" style="opacity:0.7;overflow:visible;overflow-x:visible;overflow-y:visible;perspective-origin:912px 512.533px;transform-origin:0px 0px;fill:none;marker-start:url(&quot;http://localhost/infographic/charts/expenses.html#marker&quot;);stroke:rgb(0, 0, 0);stroke-width:2;" points="-154.8503086671255,-322.2506905046069 -210.88433459796536 -438.8601031909096"/><polyline marker-start="url(#marker)" style="opacity:0.7;overflow:visible;overflow-x:visible;overflow-y:visible;perspective-origin:912px 512.533px;transform-origin:0px 0px;fill:none;marker-start:url(&quot;http://localhost/infographic/charts/expenses.html#marker&quot;);stroke:rgb(0, 0, 0);stroke-width:2;" points="-114.9652646798539,-338.5367240671108 -156.56651609269286 -461.0393896297354"/><polyline marker-start="url(#marker)" style="opacity:0.7;overflow:visible;overflow-x:visible;overflow-y:visible;perspective-origin:912px 512.533px;transform-origin:0px 0px;fill:none;marker-start:url(&quot;http://localhost/infographic/charts/expenses.html#marker&quot;);stroke:rgb(0, 0, 0);stroke-width:2;" points="-48.550755843182785,-354.21314167045756 -66.11929887868232 -482.38846489873066"/></g></svg>